<?xml version="1.0" ?><svg xmlns="http://www.w3.org/2000/svg" id="Layer_2" viewBox="0 0 32 32"><defs><style>.cls-1{fill:none;}.cls-1,.cls-2{stroke-width:0px;}</style></defs><g id="icons"><g id="Person"><g id="User"><path fill="#6A6C87" class="cls-2" d="m26,30h-2v-3c0-2.76-2.24-5-5-5h-6c-2.76,0-5,2.24-5,5v3h-2v-3c0-3.86,3.14-7,7-7h6c3.86,0,7,3.14,7,7v3Z"/><path fill="#6A6C87" class="cls-2" d="m5,6c-.55,0-1,.45-1,1v9h2V7c0-.55-.45-1-1-1Z"/><path fill="#6A6C87" class="cls-2" d="m4,2v2h5v7c0,3.87,3.13,7,7,7s7-3.13,7-7v-7h5v-2H4Zm7,2h10v3h-10v-3Zm5,12c-2.76,0-5-2.24-5-5v-2h10v2c0,2.76-2.24,5-5,5Z"/><rect id="_Transparent_Rectangle_" class="cls-1" width="32" height="32"/></g></g></g></svg>