<?xml version="1.0" ?><svg fill="none" height="24" viewBox="0 0 24 24" width="24" xmlns="http://www.w3.org/2000/svg"><path clip-rule="evenodd" d="M16.6747 4.19024C13.5875 3.60325 10.4125 3.60325 7.32531 4.19024C5.83267 4.47405 4.64581 5.5476 4.24049 6.94822L4.19222 7.11502C3.60259 9.15256 3.60259 11.3084 4.19222 13.346L4.24049 13.5128C4.64581 14.9134 5.83267 15.9869 7.32531 16.2707C10.4125 16.8577 13.5875 16.8577 16.6747 16.2707C18.1673 15.9869 19.3542 14.9134 19.7595 13.5128L19.8078 13.346C20.3974 11.3084 20.3974 9.15256 19.8078 7.11503L19.7595 6.94822C19.3542 5.5476 18.1673 4.47405 16.6747 4.19024ZM7.04513 2.71664C10.3175 2.09445 13.6825 2.09445 16.9549 2.71664C18.985 3.10264 20.6331 4.57103 21.2004 6.53125L21.2487 6.69806C21.9171 9.00798 21.9171 11.453 21.2487 13.7629L21.2004 13.9297C20.6331 15.8899 18.985 17.3583 16.9549 17.7443C15.5652 18.0086 14.1589 18.1606 12.75 18.2004V20.25H14.6361C15.0504 20.25 15.3861 20.5858 15.3861 21C15.3861 21.4142 15.0504 21.75 14.6361 21.75H9.36386C8.94964 21.75 8.61386 21.4142 8.61386 21C8.61386 20.5858 8.94964 20.25 9.36386 20.25H11.25V18.2004C9.84112 18.1606 8.43476 18.0086 7.04513 17.7443C5.015 17.3583 3.36686 15.8899 2.79961 13.9297L2.75134 13.7629C2.08289 11.453 2.08289 9.00798 2.75134 6.69805L2.79961 6.53125C3.36686 4.57103 5.015 3.10264 7.04513 2.71664Z" fill="#6A6C87" fill-rule="evenodd"/><path clip-rule="evenodd" d="M14.3778 11.9822C14.3869 11.9749 14.3961 11.9678 14.4051 11.9606L16.464 10.3393C16.7894 10.083 16.8455 9.61145 16.5892 9.28603C16.3329 8.9606 15.8614 8.90455 15.536 9.16082L13.4771 10.7822C13.3981 10.8444 13.3339 10.8949 13.2778 10.9376C13.2341 10.8822 13.1846 10.8173 13.1236 10.7373L12.0695 9.35377C12.0625 9.34457 12.0555 9.33533 12.0484 9.32604C11.9223 9.16036 11.7862 8.98161 11.6511 8.84655C11.493 8.68852 11.2597 8.50969 10.9248 8.46715C10.5899 8.42462 10.3193 8.53946 10.1267 8.65296C9.96215 8.74996 9.78571 8.88901 9.62217 9.01791C9.613 9.02514 9.60387 9.03233 9.59479 9.03948L7.53595 10.6608C7.21053 10.9171 7.15447 11.3886 7.41074 11.7141C7.66701 12.0395 8.13857 12.0955 8.46399 11.8393L10.5228 10.2179C10.6019 10.1557 10.666 10.1052 10.7222 10.0624C10.7659 10.1179 10.8154 10.1828 10.8764 10.2628L11.9304 11.6463C11.9374 11.6555 11.9445 11.6648 11.9516 11.674C12.0777 11.8397 12.2138 12.0185 12.3489 12.1535C12.5069 12.3116 12.7402 12.4904 13.0752 12.5329C13.4101 12.5755 13.6807 12.4606 13.8732 12.3471C14.0378 12.2501 14.2142 12.1111 14.3778 11.9822Z" fill="#6A6C87" fill-rule="evenodd"/></svg>